<?xml version="1.0" encoding="UTF-8" standalone="no"?>
<svg
   width="300"
   zoomAndPan="magnify"
   viewBox="0 0 224.87999 225"
   height="300"
   preserveAspectRatio="xMidYMid meet"
   version="1.2"
   id="svg29"
   sodipodi:docname="logo.svg"
   inkscape:export-filename="../2315d93e/legacyevents.png"
   inkscape:export-xdpi="2000"
   inkscape:export-ydpi="2000"
   inkscape:version="1.4.3 (fcd0343856, 2026-01-01)"
   xmlns:inkscape="http://www.inkscape.org/namespaces/inkscape"
   xmlns:sodipodi="http://sodipodi.sourceforge.net/DTD/sodipodi-0.dtd"
   xmlns="http://www.w3.org/2000/svg"
   xmlns:svg="http://www.w3.org/2000/svg">
  <sodipodi:namedview
     id="namedview29"
     pagecolor="#ffffff"
     bordercolor="#000000"
     borderopacity="0.25"
     inkscape:showpageshadow="2"
     inkscape:pageopacity="0.0"
     inkscape:pagecheckerboard="0"
     inkscape:deskcolor="#d1d1d1"
     showgrid="false"
     inkscape:zoom="3.8766667"
     inkscape:cx="-96.087703"
     inkscape:cy="138.39209"
     inkscape:window-width="3374"
     inkscape:window-height="1371"
     inkscape:window-x="0"
     inkscape:window-y="0"
     inkscape:window-maximized="1"
     inkscape:current-layer="svg29" />
  <defs
     id="defs1">
    <clipPath
       id="06e3ef5e18">
      <path
         d="M 0 0.0585938 L 224.761719 0.0585938 L 224.761719 224.9375 L 0 224.9375 Z M 0 0.0585938 "
         id="path1" />
    </clipPath>
  </defs>
  <g
     style="fill:#bb64ff;fill-opacity:1"
     id="g5">
    <g
       transform="translate(54.354681,110.13278)"
       id="g4">
      <path
         style="stroke:none"
         d="M 21.578125,-8.65625 H 7.71875 c 0,1.34375 0.429688,2.339844 1.296875,2.984375 0.875,0.648437 1.820313,0.96875 2.84375,0.96875 1.0625,0 1.90625,-0.140625 2.53125,-0.421875 0.625,-0.289062 1.332031,-0.859375 2.125,-1.703125 L 21.28125,-4.4375 c -1.980469,3.335938 -5.28125,5 -9.90625,5 -2.886719,0 -5.359375,-0.988281 -7.421875,-2.96875 -2.0625,-1.976562 -3.09375,-4.359375 -3.09375,-7.140625 0,-2.78125 1.03125,-5.164063 3.09375,-7.15625 2.0625,-1.988281 4.535156,-2.984375 7.421875,-2.984375 3.03125,0 5.492188,0.882812 7.390625,2.640625 1.90625,1.75 2.859375,4.25 2.859375,7.5 0,0.449219 -0.01563,0.746094 -0.04687,0.890625 z M 7.90625,-12.296875 h 7.265625 c -0.148437,-1 -0.539063,-1.765625 -1.171875,-2.296875 -0.636719,-0.53125 -1.449219,-0.796875 -2.4375,-0.796875 -1.09375,0 -1.964844,0.289063 -2.609375,0.859375 -0.648437,0.5625 -0.996094,1.308594 -1.046875,2.234375 z m 0,0"
         id="path4" />
    </g>
  </g>
  <g
     style="fill:#bb64ff;fill-opacity:1"
     id="g7">
    <g
       transform="translate(75.078806,110.13278)"
       id="g6">
      <path
         style="stroke:none"
         d="M 7.078125,-19.125 11.75,-8.71875 16.40625,-19.125 h 7.828125 L 13.984375,0 H 9.5 L -0.75,-19.125 Z m 0,0"
         id="path5" />
    </g>
  </g>
  <g
     style="fill:#bb64ff;fill-opacity:1"
     id="g9">
    <g
       transform="translate(96.809324,110.13278)"
       id="g8">
      <path
         style="stroke:none"
         d="M 21.578125,-8.65625 H 7.71875 c 0,1.34375 0.429688,2.339844 1.296875,2.984375 0.875,0.648437 1.820313,0.96875 2.84375,0.96875 1.0625,0 1.90625,-0.140625 2.53125,-0.421875 0.625,-0.289062 1.332031,-0.859375 2.125,-1.703125 L 21.28125,-4.4375 c -1.980469,3.335938 -5.28125,5 -9.90625,5 -2.886719,0 -5.359375,-0.988281 -7.421875,-2.96875 -2.0625,-1.976562 -3.09375,-4.359375 -3.09375,-7.140625 0,-2.78125 1.03125,-5.164063 3.09375,-7.15625 2.0625,-1.988281 4.535156,-2.984375 7.421875,-2.984375 3.03125,0 5.492188,0.882812 7.390625,2.640625 1.90625,1.75 2.859375,4.25 2.859375,7.5 0,0.449219 -0.01563,0.746094 -0.04687,0.890625 z M 7.90625,-12.296875 h 7.265625 c -0.148437,-1 -0.539063,-1.765625 -1.171875,-2.296875 -0.636719,-0.53125 -1.449219,-0.796875 -2.4375,-0.796875 -1.09375,0 -1.964844,0.289063 -2.609375,0.859375 -0.648437,0.5625 -0.996094,1.308594 -1.046875,2.234375 z m 0,0"
         id="path7" />
    </g>
  </g>
  <g
     style="fill:#bb64ff;fill-opacity:1"
     id="g11">
    <g
       transform="translate(117.53345,110.13278)"
       id="g10">
      <path
         style="stroke:none"
         d="m 2.234375,0 v -19.125 h 6.59375 v 2.015625 H 8.90625 c 1.71875,-1.71875 3.546875,-2.578125 5.484375,-2.578125 0.945313,0 1.882813,0.125 2.8125,0.375 0.9375,0.25 1.832031,0.636719 2.6875,1.15625 0.851563,0.523438 1.546875,1.261719 2.078125,2.21875 0.539062,0.960938 0.8125,2.074219 0.8125,3.34375 V 0 H 16.1875 v -10.8125 c 0,-0.988281 -0.320312,-1.859375 -0.953125,-2.609375 -0.636719,-0.75 -1.464844,-1.125 -2.484375,-1.125 -0.992188,0 -1.890625,0.386719 -2.703125,1.15625 -0.8125,0.773437 -1.21875,1.632813 -1.21875,2.578125 V 0 Z m 0,0"
         id="path9" />
    </g>
  </g>
  <g
     style="fill:#bb64ff;fill-opacity:1"
     id="g13">
    <g
       transform="translate(140.41946,110.13278)"
       id="g12">
      <path
         style="stroke:none"
         d="m 3.359375,-19.125 v -7.125 h 6.59375 v 7.125 h 4.03125 v 5.03125 h -4.03125 v 6.078125 c 0,1.761719 0.5,2.640625 1.5,2.640625 0.238281,0 0.492187,-0.046875 0.765625,-0.140625 C 12.5,-5.617188 12.710938,-5.71875 12.859375,-5.8125 l 0.21875,-0.15625 1.640625,5.328125 C 13.300781,0.160156 11.6875,0.5625 9.875,0.5625 8.632812,0.5625 7.566406,0.34375 6.671875,-0.09375 5.773438,-0.53125 5.097656,-1.113281 4.640625,-1.84375 4.179688,-2.570312 3.851562,-3.34375 3.65625,-4.15625 3.457031,-4.96875 3.359375,-5.832031 3.359375,-6.75 v -7.34375 H 0.59375 V -19.125 Z m 0,0"
         id="path11" />
    </g>
  </g>
  <g
     style="fill:#bb64ff;fill-opacity:1"
     id="g15">
    <g
       transform="translate(153.39061,110.13278)"
       id="g14">
      <path
         style="stroke:none"
         d="m 10.546875,-19.6875 c 1.09375,0 2.171875,0.125 3.234375,0.375 1.070312,0.25 1.875,0.5 2.40625,0.75 l 0.78125,0.375 -2.171875,4.3125 c -1.492187,-0.789062 -2.90625,-1.1875 -4.25,-1.1875 -0.742187,0 -1.265625,0.08594 -1.578125,0.25 -0.3125,0.15625 -0.46875,0.460938 -0.46875,0.90625 0,0.105469 0.00781,0.210938 0.03125,0.3125 0.03125,0.09375 0.082031,0.183594 0.15625,0.265625 0.070312,0.08594 0.140625,0.15625 0.203125,0.21875 0.0625,0.0625 0.164063,0.136719 0.3125,0.21875 0.15625,0.07422 0.273437,0.132813 0.359375,0.171875 0.082031,0.03125 0.222656,0.08594 0.421875,0.15625 0.207031,0.07422 0.359375,0.132812 0.453125,0.171875 0.101562,0.03125 0.269531,0.08984 0.5,0.171875 0.238281,0.07422 0.421875,0.121094 0.546875,0.140625 0.769531,0.21875 1.441406,0.46875 2.015625,0.75 0.570312,0.273437 1.171875,0.648437 1.796875,1.125 0.632813,0.46875 1.125,1.0625 1.46875,1.78125 0.351563,0.71875 0.53125,1.539063 0.53125,2.453125 0,4.355469 -3.023437,6.53125 -9.0625,6.53125 -1.367187,0 -2.664063,-0.210938 -3.890625,-0.625 C 3.113281,-0.488281 2.222656,-0.914062 1.671875,-1.34375 l -0.8125,-0.671875 2.6875,-4.515625 c 0.195313,0.179688 0.457031,0.386719 0.78125,0.625 0.320313,0.230469 0.90625,0.554688 1.75,0.96875 0.84375,0.40625 1.578125,0.609375 2.203125,0.609375 1.363281,0 2.046875,-0.457031 2.046875,-1.375 0,-0.425781 -0.179687,-0.753906 -0.53125,-0.984375 C 9.453125,-6.925781 8.863281,-7.191406 8.03125,-7.484375 7.195312,-7.785156 6.546875,-8.0625 6.078125,-8.3125 c -1.199219,-0.625 -2.148437,-1.328125 -2.84375,-2.109375 -0.6875,-0.78125 -1.03125,-1.816406 -1.03125,-3.109375 0,-1.9375 0.75,-3.445312 2.25,-4.53125 1.5,-1.082031 3.53125,-1.625 6.09375,-1.625 z m 0,0"
         id="path13" />
    </g>
  </g>
  <g
     style="fill:#bb64ff;fill-opacity:1"
     id="g17">
    <g
       transform="translate(169.97734,110.13278)"
       id="g16">
      <path
         style="stroke:none"
         d="m 6.484375,-7.984375 c 1.195313,0 2.210937,0.417969 3.046875,1.25 0.832031,0.835937 1.25,1.851563 1.25,3.046875 0,1.167969 -0.417969,2.167969 -1.25,3 -0.835938,0.832031 -1.851562,1.25 -3.046875,1.25 -1.167969,0 -2.167969,-0.417969 -3,-1.25 -0.835937,-0.832031 -1.25,-1.832031 -1.25,-3 0,-1.195312 0.414063,-2.210938 1.25,-3.046875 0.832031,-0.832031 1.832031,-1.25 3,-1.25 z m 0,0"
         id="path15" />
    </g>
  </g>
  <g
     style="fill:#ffffff;fill-opacity:1"
     id="g19">
    <g
       transform="translate(42.551989,133.45745)"
       id="g18">
      <path
         style="stroke:none"
         d="m 2.484375,0 v -35.65625 h 7.34375 V 0 Z m 0,0"
         id="path17" />
    </g>
  </g>
  <g
     style="fill:#ffffff;fill-opacity:1"
     id="g21">
    <g
       transform="translate(52.50437,133.45745)"
       id="g20">
      <path
         style="stroke:none"
         d="m 24.015625,-9.625 h -15.4375 c 0,1.5 0.484375,2.609375 1.453125,3.328125 0.96875,0.71875 2.019531,1.078125 3.15625,1.078125 1.1875,0 2.125,-0.15625 2.8125,-0.46875 0.695312,-0.320312 1.488281,-0.957031 2.375,-1.90625 l 5.296875,2.65625 c -2.210937,3.710938 -5.886719,5.5625 -11.03125,5.5625 -3.199219,0 -5.949219,-1.097656 -8.25,-3.296875 -2.292969,-2.195313 -3.4375,-4.84375 -3.4375,-7.9375 0,-3.101563 1.144531,-5.757813 3.4375,-7.96875 2.300781,-2.207031 5.050781,-3.3125 8.25,-3.3125 3.375,0 6.117187,0.976563 8.234375,2.921875 2.113281,1.949219 3.171875,4.734375 3.171875,8.359375 0,0.492187 -0.01172,0.820313 -0.03125,0.984375 z M 8.796875,-13.6875 H 16.875 c -0.167969,-1.101562 -0.605469,-1.953125 -1.3125,-2.546875 -0.699219,-0.59375 -1.601562,-0.890625 -2.703125,-0.890625 -1.21875,0 -2.1875,0.320312 -2.90625,0.953125 -0.71875,0.636719 -1.105469,1.464844 -1.15625,2.484375 z m 0,0"
         id="path19" />
    </g>
  </g>
  <g
     style="fill:#ffffff;fill-opacity:1"
     id="g23">
    <g
       transform="translate(75.146349,133.45745)"
       id="g22">
      <path
         style="stroke:none"
         d="m 1.53125,5.21875 6.015625,-2.9375 c 1.101563,1.820312 3.023437,2.734375 5.765625,2.734375 1.269531,0 2.453125,-0.40625 3.546875,-1.21875 1.09375,-0.8125 1.640625,-2.0625 1.640625,-3.75 V -1.53125 C 17.195312,-0.09375 14.875,0.625 11.53125,0.625 8.457031,0.625 5.925781,-0.457031 3.9375,-2.625 1.945312,-4.800781 0.953125,-7.460938 0.953125,-10.609375 c 0,-3.15625 0.992187,-5.820313 2.984375,-8 1.988281,-2.1875 4.519531,-3.28125 7.59375,-3.28125 2.738281,0 5.019531,0.84375 6.84375,2.53125 H 18.5 v -1.921875 h 7.328125 V 0.578125 c 0,3.457031 -1.148437,6.125 -3.4375,8 -2.292969,1.882813 -5.320313,2.828125 -9.078125,2.828125 -6.085938,0 -10.011719,-2.0625 -11.78125,-6.1875 z m 8.640625,-19.4375 C 9.222656,-13.28125 8.75,-12.078125 8.75,-10.609375 c 0,1.460937 0.453125,2.652344 1.359375,3.578125 0.914063,0.929688 2.117187,1.390625 3.609375,1.390625 1.4375,0 2.617188,-0.46875 3.546875,-1.40625 0.925781,-0.9375 1.390625,-2.125 1.390625,-3.5625 0,-1.46875 -0.480469,-2.671875 -1.4375,-3.609375 -0.949219,-0.945312 -2.117188,-1.421875 -3.5,-1.421875 -1.40625,0 -2.589844,0.476563 -3.546875,1.421875 z m 0,0"
         id="path21" />
    </g>
  </g>
  <g
     style="fill:#ffffff;fill-opacity:1"
     id="g25">
    <g
       transform="translate(101.10587,133.45745)"
       id="g24">
      <path
         style="stroke:none"
         d="m 3.9375,-2.625 c -1.992188,-2.175781 -2.984375,-4.835938 -2.984375,-7.984375 0,-3.15625 0.992187,-5.820313 2.984375,-8 1.988281,-2.1875 4.519531,-3.28125 7.59375,-3.28125 2.820312,0 5.144531,0.886719 6.96875,2.65625 v -2.046875 h 7.328125 V 0 h -7.25 V -2.40625 H 18.5 C 16.675781,-0.382812 14.351562,0.625 11.53125,0.625 8.457031,0.625 5.925781,-0.457031 3.9375,-2.625 Z m 6.234375,-11.59375 C 9.222656,-13.28125 8.75,-12.078125 8.75,-10.609375 c 0,1.460937 0.453125,2.652344 1.359375,3.578125 0.914063,0.929688 2.117187,1.390625 3.609375,1.390625 1.4375,0 2.617188,-0.46875 3.546875,-1.40625 0.925781,-0.9375 1.390625,-2.125 1.390625,-3.5625 0,-1.46875 -0.480469,-2.671875 -1.4375,-3.609375 -0.949219,-0.945312 -2.117188,-1.421875 -3.5,-1.421875 -1.40625,0 -2.589844,0.476563 -3.546875,1.421875 z m 0,0"
         id="path23" />
    </g>
  </g>
  <g
     style="fill:#ffffff;fill-opacity:1"
     id="g27">
    <g
       transform="translate(127.06539,133.45745)"
       id="g26">
      <path
         style="stroke:none"
         d="m 13.8125,-15.875 c -1.386719,0 -2.578125,0.511719 -3.578125,1.53125 -0.992187,1.023438 -1.484375,2.25 -1.484375,3.6875 0,1.46875 0.492188,2.714844 1.484375,3.734375 1,1.023437 2.191406,1.53125 3.578125,1.53125 0.65625,0 1.28125,-0.082031 1.875,-0.25 0.601562,-0.164063 1.039062,-0.332031 1.3125,-0.5 l 0.375,-0.25 2.484375,5.109375 c -0.1875,0.136719 -0.460937,0.308594 -0.8125,0.515625 -0.34375,0.210937 -1.132813,0.492187 -2.359375,0.84375 C 15.457031,0.441406 14.140625,0.625 12.734375,0.625 9.609375,0.625 6.863281,-0.472656 4.5,-2.671875 2.132812,-4.867188 0.953125,-7.503906 0.953125,-10.578125 c 0,-3.09375 1.179687,-5.75 3.546875,-7.96875 2.363281,-2.226563 5.109375,-3.34375 8.234375,-3.34375 1.40625,0 2.703125,0.167969 3.890625,0.5 1.1875,0.324219 2.03125,0.652344 2.53125,0.984375 l 0.703125,0.5 -2.484375,5.015625 C 16.457031,-15.546875 15.269531,-15.875 13.8125,-15.875 Z m 0,0"
         id="path25" />
    </g>
  </g>
  <g
     style="fill:#ffffff;fill-opacity:1"
     id="g29">
    <g
       transform="translate(145.06281,133.45745)"
       id="g28">
      <path
         style="stroke:none"
         d="m 18.625,-21.28125 h 8.453125 L 10.375,10.78125 H 1.90625 L 9.25,-3.3125 -0.828125,-21.28125 H 7.625 l 5.9375,10.90625 z m 0,0"
         id="path27" />
    </g>
  </g>
</svg>
